<?xml version="1.0" encoding="UTF-8" standalone="no"?>
<svg
   xmlns:dc="http://purl.org/dc/elements/1.1/"
   xmlns:cc="http://creativecommons.org/ns#"
   xmlns:rdf="http://www.w3.org/1999/02/22-rdf-syntax-ns#"
   xmlns:svg="http://www.w3.org/2000/svg"
   xmlns="http://www.w3.org/2000/svg"
   xmlns:sodipodi="http://sodipodi.sourceforge.net/DTD/sodipodi-0.dtd"
   xmlns:inkscape="http://www.inkscape.org/namespaces/inkscape"
   version="1.1"
   id="svg2"
   xml:space="preserve"
   width="1365.3333"
   height="1365.3333"
   viewBox="0 0 1365.3333 1365.3333"
   sodipodi:docname="logo.ai"><metadata
     id="metadata8"><rdf:RDF><cc:Work
         rdf:about=""><dc:format>image/svg+xml</dc:format><dc:type
           rdf:resource="http://purl.org/dc/dcmitype/StillImage" /></cc:Work></rdf:RDF></metadata><defs
     id="defs6"><clipPath
       clipPathUnits="userSpaceOnUse"
       id="clipPath22"><path
         d="M 0,1024 H 1024 V 0 H 0 Z"
         id="path20" /></clipPath></defs><sodipodi:namedview
     pagecolor="#ffffff"
     bordercolor="#666666"
     borderopacity="1"
     objecttolerance="10"
     gridtolerance="10"
     guidetolerance="10"
     inkscape:pageopacity="0"
     inkscape:pageshadow="2"
     inkscape:window-width="640"
     inkscape:window-height="480"
     id="namedview4" /><g
     id="g10"
     inkscape:groupmode="layer"
     inkscape:label="logo"
     transform="matrix(1.3333333,0,0,-1.3333333,0,1365.3333)"><path
       d="M 0,0 H 1024 V 1024 H 0 Z"
       style="fill:#ff5765;fill-opacity:1;fill-rule:nonzero;stroke:none"
       id="path12" /><path
       d="M 912,112 H 112 v 800 h 800 z"
       style="fill:#a8e10c;fill-opacity:1;fill-rule:nonzero;stroke:none"
       id="path14" /><g
       id="g16"><g
         id="g18"
         clip-path="url(#clipPath22)"><g
           id="g24"
           transform="translate(699.8398,536.1001)"><path
             d="m 0,0 c -4.45,0.67 -6.95,0.9 -6.95,0.9 h -46.21 c -10.17,84.21 -82.15,116.51 -138.12,128.87 -20.47,4.52 -38.79,6.38 -51.17,7.14 -10.22,0.62 -16.39,0.49 -16.39,0.49 V 79.57 c -13.65,-24.76 -34.29,-42.45 -57,-55.08 V 137.9 h -55 v 43 h 177.47 c 0,0 0.61,-0.06 1.75,-0.2 C -172.899,178.39 -10.16,153.94 0,0"
             style="fill:#ffdb15;fill-opacity:1;fill-rule:nonzero;stroke:none"
             id="path26" /></g><g
           id="g28"
           transform="translate(699.8398,536.1001)"><path
             d="m 0,0 c -4.45,0.67 -6.95,0.9 -6.95,0.9 h -46.21 c -10.17,84.21 -82.15,116.51 -138.12,128.87 -20.47,4.52 -38.79,6.38 -51.17,7.14 -10.22,0.62 -16.39,0.49 -16.39,0.49 V 79.57 c -13.65,-24.76 -34.29,-42.45 -57,-55.08 V 137.9 h -55 v 43 h 177.47 c 0,0 0.61,-0.06 1.75,-0.2 C -172.899,178.39 -10.16,153.94 0,0 Z"
             style="fill:none;stroke:#8a6fdf;stroke-width:20;stroke-linecap:butt;stroke-linejoin:miter;stroke-miterlimit:10;stroke-dasharray:none;stroke-opacity:1"
             id="path30" /></g><g
           id="g32"
           transform="translate(508.5601,665.8701)"><path
             d="m 0,0 c -6.04,-61.43 -34.39,-102.34 -67.56,-129.48 -18.51,-15.15 -38.52,-26.02 -57,-33.78 -37.17,-15.6 -68.12,-18.61 -68.12,-18.61 h -178.88 v 42 h 57 v 318 h -57 v 42 h 178.88 c 0,0 174.16,-16.3 192.34,-169.2 -1.14,0.14 -1.75,0.2 -1.75,0.2 h -51.32 c -24.42,130.29 -204.15,126.59 -204.15,126.59 v -314.54 c 0,0 73.6,-1.51 133,31.54 22.71,12.63 43.35,30.32 57,55.08 8.82,15.99 14.73,34.92 16.39,57.34 C -38.79,6.38 -20.47,4.52 0,0"
             style="fill:#ffdb15;fill-opacity:1;fill-rule:nonzero;stroke:none"
             id="path34" /></g><g
           id="g36"
           transform="translate(508.5601,665.8701)"><path
             d="m 0,0 c -6.04,-61.43 -34.39,-102.34 -67.56,-129.48 -18.51,-15.15 -38.52,-26.02 -57,-33.78 -37.17,-15.6 -68.12,-18.61 -68.12,-18.61 h -178.88 v 42 h 57 v 318 h -57 v 42 h 178.88 c 0,0 174.16,-16.3 192.34,-169.2 -1.14,0.14 -1.75,0.2 -1.75,0.2 h -51.32 c -24.42,130.29 -204.15,126.59 -204.15,126.59 v -314.54 c 0,0 73.6,-1.51 133,31.54 22.71,12.63 43.35,30.32 57,55.08 8.82,15.99 14.73,34.92 16.39,57.34 C -38.79,6.38 -20.47,4.52 0,0 Z"
             style="fill:none;stroke:#8a6fdf;stroke-width:20;stroke-linecap:butt;stroke-linejoin:miter;stroke-miterlimit:10;stroke-dasharray:none;stroke-opacity:1"
             id="path38" /></g><g
           id="g40"
           transform="translate(886.71,336.5)"><path
             d="m 0,0 c -3.88,-182.5 -193.82,-200.5 -193.82,-200.5 h -176.89 v 42 h 57 V -4.37 c 18.39,7.62 38.4,18.33 57,33.29 v -183.87 c 0,0 206.89,-4.25 206.89,157.28 0,99.43 -78.4,136.04 -138.67,149.49 -20.56,4.59 -39.01,6.49 -51.52,7.27 -10.4,0.64 -16.7,0.51 -16.7,0.51 v -52.3 c -13.85,-24.19 -34.44,-41.48 -57,-53.85 V 157.5 h -57 v 43 h 176.89 c 0,0 2.5,-0.23 6.95,-0.9 C -151.87,194.36 3.44,161.96 0,0"
             style="fill:#ffdb15;fill-opacity:1;fill-rule:nonzero;stroke:none"
             id="path42" /></g><g
           id="g44"
           transform="translate(886.71,336.5)"><path
             d="m 0,0 c -3.88,-182.5 -193.82,-200.5 -193.82,-200.5 h -176.89 v 42 h 57 V -4.37 c 18.39,7.62 38.4,18.33 57,33.29 v -183.87 c 0,0 206.89,-4.25 206.89,157.28 0,99.43 -78.4,136.04 -138.67,149.49 -20.56,4.59 -39.01,6.49 -51.52,7.27 -10.4,0.64 -16.7,0.51 -16.7,0.51 v -52.3 c -13.85,-24.19 -34.44,-41.48 -57,-53.85 V 157.5 h -57 v 43 h 176.89 c 0,0 2.5,-0.23 6.95,-0.9 C -151.87,194.36 3.44,161.96 0,0 Z"
             style="fill:none;stroke:#8a6fdf;stroke-width:20;stroke-linecap:butt;stroke-linejoin:miter;stroke-miterlimit:10;stroke-dasharray:none;stroke-opacity:1"
             id="path46" /></g><g
           id="g48"
           transform="translate(698.2197,488.3203)"><path
             d="m 0,0 c -7.76,-57.95 -35.84,-96.86 -68.22,-122.9 -18.599,-14.96 -38.61,-25.67 -57,-33.29 -36.46,-15.121 -66.53,-18.13 -66.53,-18.13 h -177.47 v 43 h 55 V 14.29 c 18.48,7.76 38.491,18.63 57,33.78 v -177.43 c 0,0 72.77,-1.491 132,30.99 22.56,12.37 43.151,29.66 57,53.849 8.37,14.611 14.29,31.731 16.7,51.791 C -39.01,6.489 -20.56,4.59 0,0"
             style="fill:#ffdb15;fill-opacity:1;fill-rule:nonzero;stroke:none"
             id="path50" /></g><g
           id="g52"
           transform="translate(698.2197,488.3203)"><path
             d="m 0,0 c -7.76,-57.95 -35.84,-96.86 -68.22,-122.9 -18.599,-14.96 -38.61,-25.67 -57,-33.29 -36.46,-15.121 -66.53,-18.13 -66.53,-18.13 h -177.47 v 43 h 55 V 14.29 c 18.48,7.76 38.491,18.63 57,33.78 v -177.43 c 0,0 72.77,-1.491 132,30.99 22.56,12.37 43.151,29.66 57,53.849 8.37,14.611 14.29,31.731 16.7,51.791 C -39.01,6.489 -20.56,4.59 0,0 Z"
             style="fill:none;stroke:#8a6fdf;stroke-width:20;stroke-linecap:butt;stroke-linejoin:miter;stroke-miterlimit:10;stroke-dasharray:none;stroke-opacity:1"
             id="path54" /></g></g></g></g></svg>
